<svg id="Layer_1" data-name="Layer 1" xmlns="http://www.w3.org/2000/svg" viewBox="0 0 248.72 144.82" width="250" height="150">
    <defs>
        <style>
            .cls-1,.cls-2,.cls-3,.cls-4{fill:none;}.cls-1{stroke:#7d8390;}.cls-1,.cls-2,.cls-3{stroke-width:0.2px;}.cls-2{stroke:#eb0029;}.cls-3,.cls-4{stroke:#060e9f;}.cls-4{stroke-width:0.75px;}
        </style>
    </defs>
    <title>Logo-ILA-DU-HOC2</title>
    <path class="cls-1"
          d="M14.07,132.69H1.81V85.62H13.94a53.69,53.69,0,0,1,11,.89A25.06,25.06,0,0,1,35.06,91a22.29,22.29,0,0,1,6.65,8.2,23.36,23.36,0,0,1,2.36,10.15,21.81,21.81,0,0,1-2.36,9.82,22.34,22.34,0,0,1-6.65,8.12,25.39,25.39,0,0,1-10.15,4.47A52.68,52.68,0,0,1,14.07,132.69Zm-11-1.27h11a52.22,52.22,0,0,0,10.71-.89,24,24,0,0,0,9.62-4.24,21.1,21.1,0,0,0,6.3-7.62,20.56,20.56,0,0,0,2.23-9.27,22.11,22.11,0,0,0-2.23-9.65A21,21,0,0,0,34.43,92h0a23.84,23.84,0,0,0-9.75-4.21A52.37,52.37,0,0,0,14,86.94H3.1ZM14.25,122h-.66V96.28h.63a42.57,42.57,0,0,1,6.14.3,17.39,17.39,0,0,1,6.19,2.06A12.69,12.69,0,0,1,31,103.21a12.21,12.21,0,0,1,1.57,6.09,11.37,11.37,0,0,1-5.46,9.9,14.24,14.24,0,0,1-4.75,2.13,35.11,35.11,0,0,1-8.17.69Zm.63-24.45v23.18a32.29,32.29,0,0,0,7.18-.58,13,13,0,0,0,4.34-1.93,10.15,10.15,0,0,0,4.93-8.83,10.94,10.94,0,0,0-1.42-5.46,11.37,11.37,0,0,0-4-4.21,16.15,16.15,0,0,0-5.71-1.88,38.08,38.08,0,0,0-5.38-.3Z"
          transform="translate(-0.69 -3.09)"/>
    <path class="cls-1"
          d="M65.76,133.68a24,24,0,0,1-8.45-1.6,21.71,21.71,0,0,1-7.13-4.24,14.75,14.75,0,0,1-4.37-6.5,24,24,0,0,1-.86-7V85.62H58v28.86a8.63,8.63,0,0,0,1.37,4.72A6.25,6.25,0,0,0,61.9,121a7.29,7.29,0,0,0,6.88,0A7.62,7.62,0,0,0,71.44,119,12.36,12.36,0,0,0,73,116.57a4.9,4.9,0,0,0,.41-2V85.62H86.5v28.86a23.76,23.76,0,0,1-.79,6.68,14.85,14.85,0,0,1-4.14,6.55,21.76,21.76,0,0,1-7.06,4.37A23.23,23.23,0,0,1,65.76,133.68ZM46.26,86.89v27.6a22.85,22.85,0,0,0,.81,6.6,13.48,13.48,0,0,0,4,5.94,20.46,20.46,0,0,0,6.73,4A21.78,21.78,0,0,0,74,131a20.51,20.51,0,0,0,6.68-4.09,13.43,13.43,0,0,0,3.63-6.14,22.52,22.52,0,0,0,.74-6.3V86.89H74.69v27.6a6.25,6.25,0,0,1-.53,2.54,13.68,13.68,0,0,1-1.75,2.54,8.94,8.94,0,0,1-3.1,2.39,8.53,8.53,0,0,1-8,0,7.46,7.46,0,0,1-3-2.26,9.88,9.88,0,0,1-1.6-5.43V86.89Z"
          transform="translate(-0.69 -3.09)"/>
    <path class="cls-1"
          d="M148.11,132.69h-13v-18H122.27v18h-13.1v-47h13.1v17.16h12.85V85.62h12.95Zm-11.68-1.27h10.41V86.89H136.43V104H121V86.89H110.44v44.53H121V113.37h15.44Z"
          transform="translate(-0.69 -3.09)"/>
    <path class="cls-1" d="M178.27,147.66H165.4v-11.2h12.87Zm-11.6-1.29H177v-8.63H166.67Z"
          transform="translate(-0.69 -3.09)"/>
    <path class="cls-1"
          d="M223.41,133.68a27.16,27.16,0,0,1-18.91-7.26,23.79,23.79,0,0,1-7.26-11.7,23.25,23.25,0,0,1-6.6,11.73,24.6,24.6,0,0,1-34.55,0,23.46,23.46,0,0,1-7.26-17.31A23.86,23.86,0,0,1,156,91.71a24.57,24.57,0,0,1,41.25,11.73,23.48,23.48,0,0,1,7.26-11.7,27.09,27.09,0,0,1,18.74-7.11,29.6,29.6,0,0,1,14.7,3.86A22.14,22.14,0,0,1,247.73,99l1.29,2.92H234.81l-.69-.56a13.58,13.58,0,0,0-4.87-3.4,15.08,15.08,0,0,0-6.12-1.24,13.33,13.33,0,0,0-9.62,3.78,11.75,11.75,0,0,0-3.93,8.89,11.32,11.32,0,0,0,4,8.63,13.81,13.81,0,0,0,9.67,3.76A14.42,14.42,0,0,0,229,120.7a16.12,16.12,0,0,0,4.93-3.3l.61-.58H248.9l-1.37,2.94a22.44,22.44,0,0,1-9.75,10.15A28.61,28.61,0,0,1,223.41,133.68Zm-25.62-24.07a21.76,21.76,0,0,0,7.62,16,25.92,25.92,0,0,0,18.05,6.93,27.34,27.34,0,0,0,13.66-3.66,21.2,21.2,0,0,0,9.22-9.62l.53-1.14H235l-.23.23a17.44,17.44,0,0,1-5.31,3.55,15.66,15.66,0,0,1-6.14,1.17A15,15,0,0,1,212.8,119a12.52,12.52,0,0,1-4.44-9.57,13,13,0,0,1,4.34-9.8,14.55,14.55,0,0,1,10.51-4.11,16.32,16.32,0,0,1,6.63,1.35,14.83,14.83,0,0,1,5.31,3.73l.25.28H247l-.51-1.12a20.89,20.89,0,0,0-9.29-9.93,28.33,28.33,0,0,0-14.06-3.71,25.84,25.84,0,0,0-17.77,6.78,21.53,21.53,0,0,0-7.62,16h-1.27a23.23,23.23,0,0,0-46.46.48,22.24,22.24,0,0,0,6.88,16.4,23.33,23.33,0,0,0,32.75,0,22.09,22.09,0,0,0,6.8-16ZM173.35,123a12.87,12.87,0,0,1-9.65-4.11,13.48,13.48,0,0,1-4-9.82,13.18,13.18,0,0,1,4-9.7,13,13,0,0,1,9.67-4,13.58,13.58,0,0,1,13.71,13.45q0,.13,0,.26a13.33,13.33,0,0,1-4.11,9.8,12.92,12.92,0,0,1-9.57,4.11Zm0-26.38a11.78,11.78,0,0,0-8.76,3.63,12,12,0,0,0-3.6,8.81,12.26,12.26,0,0,0,3.63,8.94,12,12,0,0,0,17,.47l.47-.47a12.41,12.41,0,0,0-8.68-21.33Z"
          transform="translate(-0.69 -3.09)"/>
    <path class="cls-2"
          d="M9.53,21a8.58,8.58,0,1,1,8.58-8.58h0A8.61,8.61,0,0,1,9.53,21Zm0-15.89a7.31,7.31,0,1,0,7.31,7.31h0A7.34,7.34,0,0,0,9.53,5.07Z"
          transform="translate(-0.69 -3.09)"/>
    <path class="cls-3" d="M16.1,74.45H2.87V26.67H16.1ZM4.75,72.54H14.2v-44H4.78Z" transform="translate(-0.69 -3.09)"/>
    <path class="cls-4" d="M38.82,74.45H25.57v-71H38.82Zm-11.35-1.9h9.44V5.37H27.47Z"
          transform="translate(-0.69 -3.09)"/>
    <path class="cls-4"
          d="M61.7,75a16.25,16.25,0,0,1-12.11-4.75A15.23,15.23,0,0,1,45.45,59.6,16.43,16.43,0,0,1,53.55,45a37.8,37.8,0,0,1,18.84-4.65,10.15,10.15,0,0,0-.56-2.54,5.08,5.08,0,0,0-2.54-3A9,9,0,0,0,65.1,34,19.24,19.24,0,0,0,54.56,36.9l-2.77,1.85L48.24,28.22l1.7-1.07a31.4,31.4,0,0,1,16.2-4.27,23.36,23.36,0,0,1,9.57,1.8A15.87,15.87,0,0,1,82,29.77a23.43,23.43,0,0,1,3.91,14.12V60.71a74.59,74.59,0,0,0,.61,10.36L86.93,74H74.19l-.38-2.92A19.9,19.9,0,0,1,61.7,75Zm3.07-42.83a11.12,11.12,0,0,1,5.23,1,7.08,7.08,0,0,1,3.58,4,12.69,12.69,0,0,1,.76,4v1.09h-1a37,37,0,0,0-18.86,4.39,14.52,14.52,0,0,0-7.18,12.95A13.23,13.23,0,0,0,51,68.91a14.34,14.34,0,0,0,10.69,4.24,17.77,17.77,0,0,0,12.24-4.57l1.35-1.27.63,4.82h8.63V71.4a76.62,76.62,0,0,1-.63-10.64V43.86a21.63,21.63,0,0,0-3.53-13,14,14,0,0,0-5.51-4.42A21.5,21.5,0,0,0,66,24.84a29.45,29.45,0,0,0-15.23,4l-.43.25,2.28,6.75.71-.46A21,21,0,0,1,64.77,32.13Zm-1,33.61a6.52,6.52,0,0,1-7-7.13,7.62,7.62,0,0,1,1.42-4.72,11.53,11.53,0,0,1,6.45-3.76,37.24,37.24,0,0,1,8.91-1h1V56.3a7.62,7.62,0,0,1-.33,2.54,10.74,10.74,0,0,1-3.55,4.85,11.37,11.37,0,0,1-6.91,2.08ZM72.61,51a33.71,33.71,0,0,0-7.49,1,9.7,9.7,0,0,0-5.41,3,5.74,5.74,0,0,0-1,3.58,4.65,4.65,0,0,0,5.08,5.23A9.49,9.49,0,0,0,69.49,62a8.76,8.76,0,0,0,2.89-4,5.81,5.81,0,0,0,.23-1.8Z"
          transform="translate(-0.69 -3.09)"/>
</svg>